<svg width="21" height="21" viewBox="0 0 21 21" fill="none" xmlns="http://www.w3.org/2000/svg">
<path d="M10.5025 13.7812C11.5362 13.7812 12.414 13.4194 13.1359 12.6958C13.8578 11.9722 14.2187 11.0936 14.2187 10.0599C14.2187 9.02617 13.8569 8.14839 13.1333 7.42651C12.4097 6.70464 11.5311 6.3437 10.4974 6.3437C9.46367 6.3437 8.58589 6.7055 7.86401 7.4291C7.14214 8.15268 6.7812 9.03132 6.7812 10.065C6.7812 11.0987 7.143 11.9765 7.8666 12.6984C8.59018 13.4203 9.46882 13.7812 10.5025 13.7812ZM10.5 12.1625C9.91662 12.1625 9.42078 11.9583 9.01245 11.55C8.60412 11.1416 8.39995 10.6458 8.39995 10.0625C8.39995 9.47912 8.60412 8.98328 9.01245 8.57495C9.42078 8.16662 9.91662 7.96245 10.5 7.96245C11.0833 7.96245 11.5791 8.16662 11.9875 8.57495C12.3958 8.98328 12.6 9.47912 12.6 10.0625C12.6 10.6458 12.3958 11.1416 11.9875 11.55C11.5791 11.9583 11.0833 12.1625 10.5 12.1625ZM10.5 17.1281C8.25412 17.1281 6.22703 16.4718 4.4187 15.1593C2.61037 13.8468 1.26141 12.1479 0.371826 10.0625C1.26141 7.97703 2.61037 6.27808 4.4187 4.96558C6.22703 3.65308 8.25412 2.99683 10.5 2.99683C12.7458 2.99683 14.7729 3.65308 16.5812 4.96558C18.3895 6.27808 19.7385 7.97703 20.6281 10.0625C19.7385 12.1479 18.3895 13.8468 16.5812 15.1593C14.7729 16.4718 12.7458 17.1281 10.5 17.1281ZM10.4982 15.3125C12.2548 15.3125 13.8682 14.8348 15.3384 13.8796C16.8086 12.9244 17.9302 11.652 18.7031 10.0625C17.9302 8.47287 16.8092 7.20047 15.3402 6.24526C13.8711 5.29006 12.2583 4.81245 10.5017 4.81245C8.74508 4.81245 7.13167 5.29006 5.66149 6.24526C4.1913 7.20047 3.06245 8.47287 2.27495 10.0625C3.06245 11.652 4.19071 12.9244 5.65974 13.8796C7.12877 14.8348 8.7416 15.3125 10.4982 15.3125Z" fill="black"/>
</svg>
