<svg width="21" height="22" viewBox="0 0 21 22" fill="none" xmlns="http://www.w3.org/2000/svg">
<path d="M13.8689 12.0499L12.1846 10.3874C12.4908 9.74574 12.3997 9.24261 11.9111 8.87803C11.4226 8.51344 10.9669 8.46969 10.5439 8.74678L9.0127 7.19365C9.23145 7.07699 9.47207 6.98949 9.73457 6.93115C9.99707 6.87282 10.2523 6.84365 10.5002 6.84365C11.5356 6.84365 12.4143 7.20459 13.1361 7.92646C13.858 8.64834 14.2189 9.52699 14.2189 10.5624C14.2189 10.7957 14.1898 11.0582 14.1314 11.3499C14.0731 11.6416 13.9856 11.8749 13.8689 12.0499ZM17.1064 15.3312L15.9033 14.1062C16.545 13.5957 17.1028 13.0343 17.5768 12.4218C18.0507 11.8093 18.4335 11.1895 18.7252 10.5624C17.9669 8.95824 16.8695 7.68219 15.433 6.73428C13.9965 5.78636 12.4252 5.3124 10.7189 5.3124C10.1064 5.3124 9.50853 5.36344 8.92519 5.46553C8.34186 5.56761 7.91165 5.68428 7.63457 5.81553L6.19082 4.37178C6.70124 4.13844 7.37572 3.93428 8.21426 3.75928C9.0528 3.58428 9.85124 3.49678 10.6096 3.49678C12.7533 3.49678 14.7367 4.11657 16.5596 5.35615C18.3825 6.59574 19.7387 8.33115 20.6283 10.5624C20.2637 11.5249 19.7715 12.4108 19.1518 13.2202C18.532 14.0296 17.8502 14.7332 17.1064 15.3312ZM17.6533 20.2968L14.2846 16.9718C13.7742 17.1759 13.1908 17.3364 12.5346 17.453C11.8783 17.5697 11.2002 17.628 10.5002 17.628C8.29811 17.628 6.28197 17.0046 4.45176 15.7577C2.62155 14.5108 1.26165 12.7791 0.37207 10.5624C0.63457 9.81865 1.03561 9.06761 1.5752 8.30928C2.11478 7.55094 2.74186 6.82178 3.45645 6.12178L0.76582 3.4749L1.85957 2.3374L18.6814 19.1593L17.6533 20.2968ZM4.7252 7.36865C4.2002 7.79157 3.71895 8.29105 3.28145 8.86709C2.84395 9.44313 2.50853 10.0082 2.2752 10.5624C3.03353 12.1812 4.14915 13.4608 5.62207 14.4015C7.09499 15.3421 8.77936 15.8124 10.6752 15.8124C11.0689 15.8124 11.4736 15.7905 11.8893 15.7468C12.3049 15.703 12.6294 15.6228 12.8627 15.5062L11.4627 14.1062C11.346 14.1645 11.1965 14.2082 11.0143 14.2374C10.832 14.2666 10.6606 14.2812 10.5002 14.2812C9.47936 14.2812 8.60436 13.9239 7.8752 13.2093C7.14603 12.4947 6.78145 11.6124 6.78145 10.5624C6.78145 10.402 6.79238 10.2343 6.81426 10.0593C6.83613 9.88428 6.86895 9.73115 6.9127 9.5999L4.7252 7.36865Z" fill="black"/>
</svg>
